<svg id="Capa_1" enable-background="new 0 0 512 512" height="512" viewBox="0 0 512 512" width="512" xmlns="http://www.w3.org/2000/svg"><g><path d="m501.885 83.543h-491.77c-5.586 0-10.115 4.529-10.115 10.115v324.683c0 5.586 4.529 10.115 10.115 10.115h491.77c5.587 0 10.115-4.529 10.115-10.115v-324.683c0-5.586-4.529-10.115-10.115-10.115zm-481.655 166.388h40.526l27.002 55.032c3.745 7.63 15.097 7.312 18.402-.527l42.843-101.62 35.914 75.403c3.442 7.229 13.933 7.626 17.912.675l18.308-31.998h33.806l25.571 66.352c3.279 8.51 15.76 8.428 18.926-.127l33.591-90.797 27.671 83.392c2.98 8.98 16.09 9.05 19.167.103l19.906-57.911h16.046c5.587 0 10.115-4.529 10.115-10.115s-4.529-10.115-10.115-10.115h-23.265c-4.319 0-8.162 2.742-9.566 6.827l-12.518 36.417-27.321-82.338c-1.353-4.077-5.134-6.855-9.429-6.929-4.326-.104-8.168 2.574-9.659 6.605l-34.303 92.722-18.436-47.837c-1.504-3.904-5.256-6.478-9.439-6.478h-46.614c-3.628 0-6.978 1.943-8.78 5.092l-11.622 20.311-37.296-78.306c-1.713-3.598-5.391-5.834-9.363-5.763-3.983.09-7.542 2.511-9.09 6.183l-42.978 101.94-20.001-40.764c-1.7-3.464-5.222-5.659-9.081-5.659h-46.83v-84.475h471.54v193.353h-471.54zm471.54-146.157v21.221h-471.54v-21.221zm-471.54 304.452v-49.417h471.54v49.417z"/><circle cx="136.977" cy="382.44" r="10"/><circle cx="96.516" cy="382.44" r="10"/><circle cx="177.438" cy="382.44" r="10"/><circle cx="461.002" cy="237.793" r="10"/></g></svg>