<svg width="243" height="364" viewBox="0 0 243 364" fill="none" xmlns="http://www.w3.org/2000/svg">
<path d="M0 362.794V313.286H12.5337V362.794H0Z" fill="black"/>
<path d="M21.4058 344.977V337.301H40.0655V344.977H21.4058Z" fill="black"/>
<path d="M92.3129 321.244L85.0603 329.836C81.8213 325.892 77.0331 323.427 72.597 323.427C64.781 323.427 58.7958 329.625 58.7958 337.794C58.7958 346.034 64.7106 352.372 72.597 352.372C76.7514 352.372 81.61 350.118 85.0603 346.597L92.3834 354.344C87.1023 359.766 79.2159 363.429 71.9633 363.429C57.0355 363.429 45.9805 352.442 45.9805 338.005C45.9805 323.709 57.3876 313.004 72.4562 313.004C79.7088 312.863 87.384 316.173 92.3129 321.244Z" fill="black"/>
<path d="M108.438 353.71L104.847 362.865H91.8904L113.226 313.356H126.182L147.025 362.865H133.576L130.055 353.71H108.438ZM119.281 325.822L112.099 344.132H126.393L119.281 325.822Z" fill="black"/>
<path d="M174.064 348.921H173.712H164.135V362.865H151.531V313.356H173.641C186.738 313.356 194.202 319.554 194.202 330.611C194.202 338.146 191.034 343.639 185.189 346.527L195.61 362.865H181.316L174.064 348.921ZM173.712 338.991C179.134 338.991 182.302 336.245 182.302 331.033C182.302 325.892 179.134 323.286 173.712 323.286H164.135V339.062H173.712V338.991Z" fill="black"/>
<path d="M215.397 323.216V333.075H238.985V343.005H215.397V353.006H242.365V362.935H202.863V313.427H241.591V323.357H215.397V323.216Z" fill="black"/>
<path d="M113.336 210.558C116.428 219.814 128.054 219.814 131.146 210.558L175.123 78.9196C177.664 71.3123 172.221 64.5 166.218 64.5H78.2642C72.2613 64.5 66.8175 71.3123 69.3589 78.9196L113.336 210.558Z" stroke="black" stroke-width="13"/>
<circle cx="121.741" cy="25.5" r="19" stroke="black" stroke-width="13"/>
<path d="M209.378 266.452C207.627 265.049 205.526 263.645 203.775 262.592C199.223 259.433 194.321 258.029 189.419 258.38C185.918 258.731 182.416 259.082 179.265 259.784H178.565C170.511 261.188 162.808 262.592 154.754 264.347C147.401 265.75 139.698 267.154 132.345 268.558C128.493 269.26 124.291 269.962 121.14 270.313L117.638 270.664C111.336 270.664 107.134 269.962 103.632 267.505C93.8282 260.486 84.3741 253.818 74.5699 246.799L56.012 233.463C50.0594 229.602 44.1069 225.04 38.1543 220.828C36.0534 219.074 35.3531 216.617 37.1038 214.16C38.5044 212.054 41.3056 211.704 43.7567 213.107C52.8606 218.723 61.9645 224.338 70.7183 229.953L79.1219 235.217C82.6234 237.323 86.4751 236.621 88.576 233.463C89.6264 232.059 89.9766 230.304 89.6264 228.549C89.2763 226.795 87.8757 225.04 86.1249 223.987L79.1219 219.425C69.3177 213.458 59.8636 207.492 50.0594 201.526C42.0059 196.613 31.1513 199.069 25.899 207.141C20.6468 214.862 22.7477 225.742 30.451 231.357C37.454 236.27 44.1068 241.184 51.1099 246.097C65.1159 256.275 79.8222 266.452 94.1784 276.981C100.481 281.543 107.834 284 115.538 284C117.989 284 120.44 283.649 123.241 283.298C142.149 280.14 161.407 276.279 179.965 272.769L186.268 271.717C190.82 271.015 194.321 271.717 197.473 274.173C198.523 275.226 199.924 275.928 201.675 277.332C204.826 279.438 208.678 278.736 210.778 275.928C212.879 272.419 212.179 268.558 209.378 266.452Z" fill="black"/>
<path d="M240.875 226.217C240.173 225.174 239.47 224.478 238.416 224.13C235.605 222.043 232.795 219.957 229.984 217.87C224.011 213.696 218.039 209.174 212.066 205C205.391 200.13 197.662 197.348 188.527 197H188.176H187.824C186.77 197.348 185.365 197.348 183.96 197.348C181.149 197.696 178.338 198.043 175.528 198.739C153.394 204.652 130.909 210.913 109.478 217.174L103.505 218.913C100.343 219.957 97.181 221.696 94.7217 224.826C90.5057 230.391 89.8031 238.043 92.9651 243.957C96.127 249.522 102.1 253 108.072 253C108.775 253 109.478 253 110.18 253C115.45 252.304 120.72 251.261 126.341 250.565L133.719 249.522C140.043 248.478 146.719 247.435 153.043 246.739C154.799 249.174 157.961 249.87 160.772 248.826C163.934 247.435 165.339 244.304 164.285 240.826C162.88 235.957 158.313 232.826 153.394 233.522C151.637 233.87 149.881 233.87 148.124 234.217L135.476 236.304C127.044 237.696 118.261 239.087 109.829 240.13C108.072 240.478 106.316 239.783 105.262 238.391C104.208 237.348 104.208 235.957 104.559 234.565C105.262 232.826 106.667 231.783 108.424 231.087L123.179 226.913C137.233 223.087 151.286 218.913 165.69 215.087C167.096 214.739 168.852 214.391 170.258 213.696C175.528 211.957 180.446 210.565 186.068 210.217C193.094 209.87 198.364 211.261 202.932 214.043C206.445 216.478 209.958 218.913 213.471 221.348L221.201 226.913C224.714 229.348 228.227 231.783 231.389 234.217C234.2 236.304 237.713 235.957 240.173 233.87C242.281 232.478 242.632 228.652 240.875 226.217Z" fill="black"/>
</svg>
